<?xml version="1.0" standalone="no"?><!DOCTYPE svg PUBLIC "-//W3C//DTD SVG 1.1//EN" "http://www.w3.org/Graphics/SVG/1.1/DTD/svg11.dtd"><svg t="1647151721887" class="icon" viewBox="0 0 1280 1024" version="1.1" xmlns="http://www.w3.org/2000/svg" p-id="7892" xmlns:xlink="http://www.w3.org/1999/xlink" width="250" height="200"><defs><style type="text/css"></style></defs><path d="M1088 448l-256-32-96-32h-48L454.316 88h79.018C556.666 88 576 82.75 576 76s-19.334-12-42.666-12H304v24h32v328h-96l-133.334-160H37.334L16 277.334V416h16v32h96v5.332l-128 16v85.334l128 16V576H32v32H16v138.666L37.334 768h69.334L240 608h96v328h-32v24h229.334c23.334 0 42.666-5.25 42.666-12s-19.334-12-42.666-12h-79.018L688 640h48l96-32 256-32c192-42.666 192-53.166 192-64 0-10.834 0-21.334-192-64z" p-id="7893"></path></svg>