<?xml version="1.0" standalone="no"?><!DOCTYPE svg PUBLIC "-//W3C//DTD SVG 1.1//EN" "http://www.w3.org/Graphics/SVG/1.1/DTD/svg11.dtd"><svg t="1647912431745" class="icon" viewBox="0 0 1024 1024" version="1.1" xmlns="http://www.w3.org/2000/svg" p-id="6774" xmlns:xlink="http://www.w3.org/1999/xlink" width="200" height="200"><defs><style type="text/css">@font-face { font-family: feedback-iconfont; src: url("//at.alicdn.com/t/font_1031158_u69w8yhxdu.woff2?t=1630033759944") format("woff2"), url("//at.alicdn.com/t/font_1031158_u69w8yhxdu.woff?t=1630033759944") format("woff"), url("//at.alicdn.com/t/font_1031158_u69w8yhxdu.ttf?t=1630033759944") format("truetype"); }
</style></defs><path d="M597.332089 1023.991467h-170.663751a42.665938 42.665938 0 0 1-42.665938-34.13275l-15.359737-75.94537c-14.079759-5.119913-27.73286-10.666484-42.665938-17.066375l-63.998907 42.665938a42.665938 42.665938 0 0 1-53.759082-5.119913L89.607429 813.648394a42.665938 42.665938 0 0 1-4.266593-53.759082l42.665937-63.998907a383.99344 383.99344 0 0 1-17.066375-42.665938L34.14171 639.998027a42.665938 42.665938 0 0 1-34.13275-42.665938v-170.663751a42.665938 42.665938 0 0 1 34.13275-42.665938l75.945369-15.359738a383.99344 383.99344 0 0 1 17.066376-42.665937L85.340836 264.111115a42.665938 42.665938 0 0 1 4.266593-53.759082L210.352033 89.607429A42.665938 42.665938 0 0 1 264.111115 85.340835l63.998907 42.665938c13.6531-6.399891 27.3062-11.946463 42.665937-17.066375L384.0024 34.14171a42.665938 42.665938 0 0 1 42.665938-34.13275h170.663751a42.665938 42.665938 0 0 1 42.665938 34.13275l15.359737 75.945369c14.079759 5.119913 27.73286 10.666484 42.665938 17.066375l63.998907-42.665937a42.665938 42.665938 0 0 1 53.759082 5.119912l118.611307 120.744604a42.665938 42.665938 0 0 1 4.266593 53.759082l-42.665937 63.998906a383.99344 383.99344 0 0 1 17.066375 42.665938l76.798688 13.226441a42.665938 42.665938 0 0 1 34.13275 42.665938v170.663751a42.665938 42.665938 0 0 1-34.13275 42.665938l-75.94537 15.359737a383.99344 383.99344 0 0 1-17.066375 42.665938l42.665938 63.998907a42.665938 42.665938 0 0 1-5.119912 53.759081l-120.744604 118.611307a42.665938 42.665938 0 0 1-53.759082 5.119913l-63.998907-42.665938c-13.6531 6.399891-27.3062 11.946463-42.665937 17.066375L639.998027 989.858717a42.665938 42.665938 0 0 1-42.665938 34.13275z m-135.677682-85.331876h100.691613l13.226441-66.132203a42.665938 42.665938 0 0 1 30.292816-32.426113 341.327502 341.327502 0 0 0 71.678775-29.866157 42.665938 42.665938 0 0 1 42.665938 0l55.892378 37.546026 71.252117-71.252116-36.692707-54.185741a42.665938 42.665938 0 0 1 0-42.665938 356.68724 356.68724 0 0 0 29.866156-72.105435 42.665938 42.665938 0 0 1 32.426113-30.292816l65.705544-14.933078v-100.691613l-66.132203-13.226441a42.665938 42.665938 0 0 1-32.426113-30.292816A356.68724 356.68724 0 0 0 810.661778 346.029715a42.665938 42.665938 0 0 1 0-42.665937l37.546025-55.892379-69.972138-72.958754-55.892378 38.826004a42.665938 42.665938 0 0 1-42.665938 0 341.327502 341.327502 0 0 0-71.678775-29.866157 42.665938 42.665938 0 0 1-30.292816-32.426112L562.34602 85.340835h-100.691613l-13.226441 66.132204a42.665938 42.665938 0 0 1-30.292816 32.426113A341.327502 341.327502 0 0 0 346.456375 213.338649a42.665938 42.665938 0 0 1-42.665938 0l-58.025675-38.826004-71.252116 71.252117L213.338649 301.65714a42.665938 42.665938 0 0 1 0 42.665938 356.68724 356.68724 0 0 0-29.866157 72.105435 42.665938 42.665938 0 0 1-32.426112 30.292816L85.340836 461.654407v100.691613l66.132203 13.226441a42.665938 42.665938 0 0 1 32.426113 30.292815A356.68724 356.68724 0 0 0 213.338649 677.970711a42.665938 42.665938 0 0 1 0 42.665938l-37.546025 55.892379 71.252116 71.252116L301.65714 810.661778a42.665938 42.665938 0 0 1 42.665938 0 341.327502 341.327502 0 0 0 71.678775 29.866156 42.665938 42.665938 0 0 1 30.292816 32.426113zM981.325529 597.332089z" p-id="6775"></path><path d="M512.000213 767.99584a255.995627 255.995627 0 1 1 255.995627-255.995627 255.995627 255.995627 0 0 1-255.995627 255.995627z m0-426.659378a170.663751 170.663751 0 1 0 170.663752 170.663751 170.663751 170.663751 0 0 0-170.663752-170.663751z" p-id="6776"></path></svg>